<svg width="97" height="136" viewBox="0 0 97 136" fill="none" xmlns="http://www.w3.org/2000/svg">
<path d="M43.5 2.88675C46.594 1.10042 50.406 1.10042 53.5 2.88675L85.5022 21.3632C88.5962 23.1496 90.5022 26.4508 90.5022 30.0235V66.9765C90.5022 70.5492 88.5962 73.8504 85.5022 75.6368L53.5 94.1132C50.406 95.8996 46.594 95.8996 43.5 94.1132L11.4978 75.6368C8.40376 73.8504 6.49777 70.5492 6.49777 66.9765V30.0235C6.49777 26.4508 8.40376 23.1496 11.4978 21.3632L43.5 2.88675Z" fill="url(#paint0_linear_3_884)"/>
<g style="mix-blend-mode:hard-light">
<path d="M44 41.5981C46.7846 39.9904 50.2154 39.9904 53 41.5981L86.0022 60.6519C88.7868 62.2596 90.5022 65.2308 90.5022 68.4462V106.554C90.5022 109.769 88.7868 112.74 86.0022 114.348L53 133.402C50.2154 135.01 46.7846 135.01 44 133.402L10.9978 114.348C8.21316 112.74 6.49777 109.769 6.49777 106.554V68.4462C6.49777 65.2308 8.21316 62.2596 10.9978 60.6519L44 41.5981Z" fill="url(#paint1_linear_3_884)"/>
</g>
<defs>
<linearGradient id="paint0_linear_3_884" x1="48.5" y1="0" x2="48.5" y2="97" gradientUnits="userSpaceOnUse">
<stop stop-color="#01B3FF"/>
<stop offset="1" stop-color="#6BD997"/>
</linearGradient>
<linearGradient id="paint1_linear_3_884" x1="48.5" y1="39" x2="48.5" y2="136" gradientUnits="userSpaceOnUse">
<stop stop-color="#4301FF"/>
<stop offset="1" stop-color="#D96BCE"/>
</linearGradient>
</defs>
</svg>
